<?xml version="1.0" encoding="UTF-8" standalone="no"?>
<svg
   xmlns:dc="http://purl.org/dc/elements/1.1/"
   xmlns:cc="http://creativecommons.org/ns#"
   xmlns:rdf="http://www.w3.org/1999/02/22-rdf-syntax-ns#"
   xmlns:svg="http://www.w3.org/2000/svg"
   xmlns="http://www.w3.org/2000/svg"
   xmlns:sodipodi="http://sodipodi.sourceforge.net/DTD/sodipodi-0.dtd"
   xmlns:inkscape="http://www.inkscape.org/namespaces/inkscape"
   viewBox="0 0 53.333332 53.333332"
   height="53.333332"
   width="53.333332"
   id="svg912"
   version="1.1"
   sodipodi:docname="dolmade.svg"
   inkscape:version="0.92.3 (2405546, 2018-03-11)">
  <sodipodi:namedview
     pagecolor="#ffffff"
     bordercolor="#666666"
     borderopacity="1"
     objecttolerance="10"
     gridtolerance="10"
     guidetolerance="10"
     inkscape:pageopacity="0"
     inkscape:pageshadow="2"
     inkscape:window-width="1920"
     inkscape:window-height="1146"
     id="namedview856"
     showgrid="false"
     inkscape:zoom="12.51579"
     inkscape:cx="25.381928"
     inkscape:cy="25.239485"
     inkscape:window-x="0"
     inkscape:window-y="0"
     inkscape:window-maximized="1"
     inkscape:current-layer="svg912" />
  <metadata
     id="metadata918">
    <rdf:RDF>
      <cc:Work
         rdf:about="">
        <dc:format>image/svg+xml</dc:format>
        <dc:type
           rdf:resource="http://purl.org/dc/dcmitype/StillImage" />
        <dc:title />
      </cc:Work>
    </rdf:RDF>
  </metadata>
  <defs
     id="defs916" />
  <rect
     style="fill:#ffffcd;fill-opacity:1;stroke-width:0.80852294"
     id="rect820"
     width="53.235023"
     height="34.053398"
     x="0.11936062"
     y="9.2994356"
     rx="16.769033"
     ry="2.0393384" />
  <path
     id="path922"
     d="M 2.2748456,40.86079 C 1.9418381,40.500312 1.6693773,39.076054 1.6693773,37.695771 c 0,-2.244126 0.2596684,-2.813759 2.454678,-5.384813 1.3500738,-1.581365 3.309929,-4.458256 4.3552358,-6.393089 1.0453067,-1.934834 1.9745849,-3.517879 2.0650629,-3.517879 0.09047,0 0.710125,1.28379 1.699407,2.444794 l 1.640565,1.925336 2.458103,0.18157 c 2.266231,0.167396 2.986436,-0.166686 2.986436,0.363749 0,0.91896 -1.864851,7.69245 -3.120249,11.33333 l -0.988708,2.867433 H 9.0501104 c -4.1259885,0 -6.3703645,-0.217112 -6.7752648,-0.655412 z M 18.316944,38.921859 c 0.500144,-1.426889 1.419506,-4.611572 2.043026,-7.077075 1.070981,-4.234832 1.192402,-4.450186 2.195651,-3.894248 0.584087,0.323664 1.595488,1.260136 2.68343,1.937679 l 1.938448,0.62195 2.038011,-0.999238 c 3.264103,-1.600392 2.797758,-2.480656 3.484576,1.081725 0.202706,1.05139 1.119175,3.939305 2.036597,6.417586 l 1.668042,4.505964 h -9.498569 -9.498567 z m 18.935722,-1.365443 c -1.420145,-3.330935 -3.698215,-9.336393 -2.551988,-10.245489 1.162328,-0.921869 2.118742,-0.862421 4.335024,-0.740731 0,0 0.55613,-0.115849 1.733037,-1.399811 l 2.637741,-2.877674 2.13564,4.286514 c 1.174601,2.357583 3.136282,5.554616 4.359289,7.104513 1.679393,2.128271 2.22365,3.271247 2.22365,4.669819 0,2.916182 -0.560901,3.162645 -7.197536,3.162645 h -5.986601 z m 13.143853,-6.684303 c -0.811943,-1.15333 -2.359832,-3.945271 -3.439752,-6.20431 l -1.963491,-4.107348 1.909741,-1.247652 c 1.918378,-1.253297 4.589926,-2.148554 5.020533,-1.682427 0.12699,0.137465 0.167516,3.644908 0.09006,7.79432 l -0.140829,7.544382 z M 1.6903805,24.721243 c -0.015789,-5.440232 0.1355728,-7.235528 0.6096922,-7.231516 1.4618823,0.01237 5.9285432,2.716945 5.9285432,3.589752 0,1.286275 -2.6270479,6.107672 -4.7395568,8.698466 l -1.7776765,2.18015 z m 21.7394785,1.367519 c -0.935777,-0.624981 -3.005178,-1.280515 -4.59867,-1.456739 l -2.89726,-0.320415 3.255143,-6.690674 3.25514,-6.690674 h 2.98334 c 3.350503,0 3.353536,0.0055 2.223671,4.037122 -0.411807,1.469424 -1.00668,4.848898 -1.32194,7.509943 -0.315259,2.661045 -0.713781,4.817897 -0.885607,4.793013 -0.171824,-0.02488 -1.078042,-0.556598 -2.013817,-1.181576 z m 4.769769,-2.159008 c 0.192066,-1.892764 0.829037,-5.530517 1.41549,-8.083897 l 1.066275,-4.954186 2.648926,0.146589 c 1.456906,-0.09079 2.648922,-0.214389 2.648922,-0.02049 0,0.481136 2.005038,11.453541 2.284836,12.474573 0.182768,0.666965 -0.369723,0.820981 -2.97197,0.828485 -2.643302,0.0076 -3.563805,0.27236 -5.319083,1.529765 L 27.850416,27.37114 Z M 12.626039,21.68643 C 10.936599,19.288744 7.1169091,16.646632 4.0660221,15.765387 1.9875925,15.165035 1.6693773,14.885109 1.6693773,13.657101 c 0,-2.555458 0.6088636,-2.726842 9.6874907,-2.726842 4.662106,0 8.471194,-0.231235 8.464639,-0.0059 -0.0066,0.225299 -1.332675,3.480442 -2.946935,6.725734 l -2.93502,5.90053 z m 26.674089,-3.811778 c -0.495503,-2.768025 -1.006605,-5.878456 -1.135787,-6.404151 -0.214757,-0.873948 0.321178,-0.540241 6.257454,-0.540241 6.996615,0 7.703264,0.253979 7.703264,2.768661 0,1.238774 -0.261482,1.503765 -1.740169,1.763517 -2.831755,0.497436 -5.427025,2.096225 -7.879879,4.854306 l -2.303974,2.590677 z"
     style="fill:#000000;stroke-width:0.5249548"
     inkscape:connector-curvature="0" />
</svg>
